<?xml version="1.0" encoding="UTF-8"?>
<svg id="Layer_1" xmlns="http://www.w3.org/2000/svg" version="1.1" viewBox="0 0 1280 361.83">
  <!-- Generator: Adobe Illustrator 30.2.1, SVG Export Plug-In . SVG Version: 2.1.1 Build 1)  -->
  <g>
    <path d="M47.11,134.84c7.05-12.99,16.82-23.07,29.31-30.22,12.49-7.15,26.79-10.73,42.91-10.73,20.75,0,37.92,5.19,51.52,15.56,13.6,10.38,22.71,24.93,27.35,43.67h-45.63c-2.42-7.25-6.5-12.94-12.24-17.07-5.74-4.13-12.84-6.19-21.3-6.19-12.09,0-21.66,4.38-28.71,13.14-7.05,8.76-10.58,21.21-10.58,37.32s3.52,28.25,10.58,37.02c7.05,8.76,16.62,13.14,28.71,13.14,17.12,0,28.3-7.65,33.54-22.97h45.63c-4.64,18.13-13.8,32.54-27.5,43.21-13.7,10.68-30.82,16.02-51.37,16.02-16.12,0-30.42-3.57-42.91-10.73-12.49-7.15-22.26-17.23-29.31-30.22-7.05-12.99-10.58-28.15-10.58-45.48s3.52-32.49,10.58-45.48Z"/>
    <path d="M268.61,40.4v223.62h-42.31V40.4h42.31Z"/>
    <path d="M310.16,69.56c-4.94-4.73-7.4-10.62-7.4-17.68s2.46-12.94,7.4-17.68c4.93-4.73,11.13-7.1,18.58-7.1s13.65,2.37,18.58,7.1c4.93,4.74,7.4,10.63,7.4,17.68s-2.47,12.95-7.4,17.68c-4.94,4.74-11.13,7.1-18.58,7.1s-13.65-2.37-18.58-7.1ZM349.6,96.61v167.41h-42.31V96.61h42.31Z"/>
    <path d="M542.7,193.01h-122.39c1.01,12.09,5.24,21.56,12.69,28.41,7.45,6.85,16.62,10.27,27.5,10.27,15.71,0,26.89-6.75,33.54-20.25h45.63c-4.84,16.12-14.1,29.36-27.8,39.74-13.7,10.38-30.52,15.56-50.47,15.56-16.12,0-30.57-3.57-43.36-10.73-12.8-7.15-22.77-17.27-29.92-30.37-7.15-13.09-10.73-28.2-10.73-45.33s3.52-32.53,10.58-45.63c7.05-13.09,16.92-23.16,29.61-30.22,12.69-7.05,27.3-10.58,43.82-10.58s30.17,3.43,42.76,10.27c12.59,6.85,22.36,16.57,29.31,29.16,6.95,12.59,10.43,27.05,10.43,43.36,0,6.04-.41,11.48-1.21,16.32ZM500.09,164.6c-.2-10.88-4.13-19.59-11.79-26.14-7.66-6.54-17.03-9.82-28.1-9.82-10.48,0-19.29,3.17-26.44,9.52-7.15,6.35-11.54,15.16-13.15,26.44h79.48Z"/>
    <path d="M712.83,113.08c12.29,12.59,18.43,30.17,18.43,52.73v98.21h-42.31v-92.47c0-13.3-3.33-23.52-9.97-30.67-6.65-7.15-15.71-10.73-27.2-10.73s-20.9,3.58-27.65,10.73c-6.75,7.15-10.12,17.38-10.12,30.67v92.47h-42.31V96.61h42.31v20.85c5.64-7.25,12.84-12.94,21.61-17.07,8.76-4.13,18.38-6.19,28.86-6.19,19.95,0,36.06,6.3,48.35,18.89Z"/>
    <path d="M795.63,259.34c-10.88-4.93-19.49-11.63-25.84-20.1-6.35-8.46-9.82-17.83-10.43-28.1h42.61c.8,6.45,3.98,11.79,9.52,16.02,5.54,4.23,12.44,6.35,20.7,6.35s14.35-1.61,18.89-4.84c4.53-3.22,6.8-7.35,6.8-12.39,0-5.44-2.77-9.52-8.31-12.24-5.54-2.72-14.35-5.69-26.44-8.91-12.49-3.02-22.72-6.14-30.67-9.37-7.96-3.22-14.81-8.16-20.55-14.81-5.74-6.65-8.61-15.61-8.61-26.89,0-9.26,2.67-17.73,8.01-25.38,5.34-7.65,12.99-13.7,22.97-18.13,9.97-4.43,21.71-6.65,35.2-6.65,19.94,0,35.86,4.99,47.75,14.96,11.88,9.97,18.43,23.42,19.64,40.34h-40.49c-.6-6.65-3.38-11.94-8.31-15.86-4.94-3.93-11.54-5.89-19.79-5.89-7.66,0-13.55,1.41-17.68,4.23-4.13,2.82-6.19,6.75-6.19,11.79,0,5.64,2.82,9.93,8.46,12.84,5.64,2.92,14.4,5.89,26.29,8.91,12.09,3.02,22.06,6.15,29.92,9.37,7.86,3.22,14.66,8.21,20.4,14.96,5.74,6.75,8.71,15.67,8.92,26.74,0,9.67-2.67,18.33-8.01,25.99-5.34,7.66-12.99,13.65-22.97,17.98-9.97,4.33-21.61,6.5-34.9,6.5s-25.99-2.47-36.87-7.4Z"/>
    <path d="M1084.52,193.01h-122.39c1.01,12.09,5.24,21.56,12.69,28.41,7.45,6.85,16.62,10.27,27.5,10.27,15.71,0,26.89-6.75,33.54-20.25h45.63c-4.83,16.12-14.1,29.36-27.8,39.74-13.7,10.38-30.52,15.56-50.47,15.56-16.12,0-30.57-3.57-43.36-10.73-12.8-7.15-22.77-17.27-29.92-30.37-7.15-13.09-10.73-28.2-10.73-45.33s3.52-32.53,10.58-45.63c7.05-13.09,16.92-23.16,29.61-30.22,12.69-7.05,27.3-10.58,43.82-10.58s30.17,3.43,42.76,10.27c12.59,6.85,22.36,16.57,29.31,29.16,6.95,12.59,10.43,27.05,10.43,43.36,0,6.04-.41,11.48-1.21,16.32ZM1041.91,164.6c-.2-10.88-4.13-19.59-11.79-26.14-7.66-6.54-17.03-9.82-28.1-9.82-10.48,0-19.29,3.17-26.44,9.52-7.15,6.35-11.54,15.16-13.14,26.44h79.48Z"/>
    <path d="M1140.72,259.34c-10.88-4.93-19.49-11.63-25.84-20.1-6.35-8.46-9.82-17.83-10.43-28.1h42.61c.8,6.45,3.98,11.79,9.52,16.02,5.54,4.23,12.44,6.35,20.7,6.35s14.35-1.61,18.89-4.84c4.53-3.22,6.8-7.35,6.8-12.39,0-5.44-2.77-9.52-8.31-12.24-5.54-2.72-14.35-5.69-26.44-8.91-12.49-3.02-22.72-6.14-30.67-9.37-7.96-3.22-14.81-8.16-20.55-14.81-5.74-6.65-8.61-15.61-8.61-26.89,0-9.26,2.67-17.73,8.01-25.38,5.34-7.65,12.99-13.7,22.97-18.13,9.97-4.43,21.71-6.65,35.2-6.65,19.94,0,35.86,4.99,47.75,14.96,11.88,9.97,18.43,23.42,19.64,40.34h-40.49c-.6-6.65-3.38-11.94-8.31-15.86-4.94-3.93-11.54-5.89-19.79-5.89-7.66,0-13.55,1.41-17.68,4.23-4.13,2.82-6.19,6.75-6.19,11.79,0,5.64,2.82,9.93,8.46,12.84,5.64,2.92,14.4,5.89,26.29,8.91,12.09,3.02,22.06,6.15,29.92,9.37,7.86,3.22,14.66,8.21,20.4,14.96,5.74,6.75,8.71,15.67,8.92,26.74,0,9.67-2.67,18.33-8.01,25.99-5.34,7.66-12.99,13.65-22.97,17.98-9.97,4.33-21.61,6.5-34.9,6.5s-25.99-2.47-36.87-7.4Z"/>
  </g>
  <g>
    <path d="M330.57,281.62l-10.66,38.17h-9.02l-7.16-27.18-7.49,27.18-8.97.05-10.28-38.23h8.2l6.73,29.64,7.77-29.64h8.53l7.33,29.48,6.78-29.48h8.26Z"/>
    <path d="M358.19,290.56c1.79,1,3.18,2.48,4.18,4.43,1,1.95,1.5,4.29,1.5,7.03v17.77h-7.66v-16.73c0-2.41-.6-4.26-1.8-5.55-1.2-1.29-2.84-1.94-4.92-1.94s-3.78.65-5,1.94c-1.22,1.29-1.83,3.14-1.83,5.55v16.73h-7.66v-40.47h7.66v13.95c.98-1.31,2.3-2.34,3.94-3.09,1.64-.75,3.46-1.12,5.47-1.12,2.3,0,4.34.5,6.12,1.5Z"/>
    <path d="M398.55,306.94h-22.15c.18,2.19.95,3.9,2.3,5.14,1.35,1.24,3.01,1.86,4.98,1.86,2.84,0,4.87-1.22,6.07-3.66h8.26c-.88,2.92-2.55,5.31-5.03,7.19-2.48,1.88-5.52,2.82-9.13,2.82-2.92,0-5.53-.65-7.85-1.94-2.32-1.29-4.12-3.13-5.41-5.5-1.29-2.37-1.94-5.1-1.94-8.2s.64-5.89,1.91-8.26c1.28-2.37,3.06-4.19,5.36-5.47s4.94-1.91,7.93-1.91,5.46.62,7.74,1.86c2.28,1.24,4.05,3,5.3,5.28s1.89,4.89,1.89,7.85c0,1.09-.07,2.08-.22,2.95ZM390.84,301.8c-.04-1.97-.75-3.55-2.13-4.73-1.39-1.18-3.08-1.78-5.09-1.78-1.9,0-3.49.57-4.79,1.72-1.29,1.15-2.09,2.74-2.38,4.78h14.38Z"/>
    <path d="M415.31,290.42c1.59-.91,3.4-1.37,5.44-1.37v8.04h-2.02c-2.41,0-4.22.57-5.44,1.7-1.22,1.13-1.83,3.1-1.83,5.91v15.09h-7.66v-30.3h7.66v4.7c.98-1.6,2.27-2.86,3.86-3.77Z"/>
    <path d="M453.29,306.94h-22.15c.18,2.19.95,3.9,2.3,5.14,1.35,1.24,3.01,1.86,4.98,1.86,2.84,0,4.87-1.22,6.07-3.66h8.26c-.88,2.92-2.55,5.31-5.03,7.19-2.48,1.88-5.52,2.82-9.13,2.82-2.92,0-5.53-.65-7.85-1.94-2.32-1.29-4.12-3.13-5.41-5.5-1.29-2.37-1.94-5.1-1.94-8.2s.64-5.89,1.91-8.26c1.28-2.37,3.06-4.19,5.36-5.47s4.94-1.91,7.93-1.91,5.46.62,7.74,1.86c2.28,1.24,4.05,3,5.3,5.28s1.89,4.89,1.89,7.85c0,1.09-.07,2.08-.22,2.95ZM445.58,301.8c-.04-1.97-.75-3.55-2.13-4.73-1.39-1.18-3.08-1.78-5.09-1.78-1.9,0-3.49.57-4.79,1.72-1.29,1.15-2.09,2.74-2.38,4.78h14.38Z"/>
    <path d="M475.93,318.94c-1.97-.89-3.53-2.11-4.68-3.64-1.15-1.53-1.78-3.23-1.89-5.09h7.71c.15,1.17.72,2.13,1.72,2.9,1,.77,2.25,1.15,3.75,1.15s2.6-.29,3.42-.87c.82-.58,1.23-1.33,1.23-2.24,0-.98-.5-1.72-1.5-2.21-1-.49-2.6-1.03-4.79-1.61-2.26-.55-4.11-1.11-5.55-1.7-1.44-.58-2.68-1.48-3.72-2.68-1.04-1.2-1.56-2.82-1.56-4.87,0-1.68.48-3.21,1.45-4.59.97-1.39,2.35-2.48,4.16-3.28,1.81-.8,3.93-1.2,6.37-1.2,3.61,0,6.49.9,8.64,2.71,2.15,1.8,3.34,4.24,3.55,7.3h-7.33c-.11-1.2-.61-2.16-1.5-2.87-.89-.71-2.09-1.07-3.58-1.07-1.39,0-2.45.25-3.2.77-.75.51-1.12,1.22-1.12,2.13,0,1.02.51,1.8,1.53,2.32,1.02.53,2.61,1.07,4.76,1.61,2.19.55,3.99,1.11,5.41,1.7,1.42.58,2.65,1.49,3.69,2.71,1.04,1.22,1.58,2.84,1.61,4.84,0,1.75-.48,3.32-1.45,4.7-.97,1.39-2.35,2.47-4.16,3.25s-3.91,1.18-6.32,1.18-4.7-.45-6.67-1.34Z"/>
    <path d="M509.18,295.78v14.66c0,1.02.25,1.76.74,2.21.49.46,1.32.68,2.49.68h3.55v6.45h-4.81c-6.45,0-9.68-3.14-9.68-9.41v-14.6h-3.61v-6.29h3.61v-7.49h7.71v7.49h6.78v6.29h-6.78Z"/>
    <path d="M532.45,290.42c1.59-.91,3.4-1.37,5.44-1.37v8.04h-2.02c-2.41,0-4.22.57-5.44,1.7-1.22,1.13-1.83,3.1-1.83,5.91v15.09h-7.66v-30.3h7.66v4.7c.98-1.6,2.27-2.86,3.86-3.77Z"/>
    <path d="M542.35,296.38c1.22-2.37,2.88-4.19,4.98-5.47,2.1-1.28,4.44-1.91,7.03-1.91,2.26,0,4.24.46,5.93,1.37,1.7.91,3.05,2.06,4.07,3.45v-4.32h7.71v30.3h-7.71v-4.43c-.98,1.42-2.34,2.6-4.07,3.53-1.73.93-3.73,1.39-5.99,1.39-2.55,0-4.88-.66-6.97-1.97-2.1-1.31-3.76-3.16-4.98-5.55-1.22-2.39-1.83-5.13-1.83-8.23s.61-5.78,1.83-8.15ZM563.27,299.86c-.73-1.33-1.71-2.35-2.95-3.06-1.24-.71-2.57-1.07-3.99-1.07s-2.73.35-3.94,1.04c-1.2.69-2.18,1.7-2.93,3.04-.75,1.33-1.12,2.91-1.12,4.73s.37,3.42,1.12,4.79c.75,1.37,1.73,2.41,2.95,3.14,1.22.73,2.52,1.09,3.91,1.09s2.75-.36,3.99-1.07c1.24-.71,2.22-1.73,2.95-3.06.73-1.33,1.09-2.93,1.09-4.79s-.36-3.45-1.09-4.78Z"/>
    <path d="M587.93,295.78v14.66c0,1.02.25,1.76.74,2.21.49.46,1.32.68,2.49.68h3.55v6.45h-4.81c-6.45,0-9.68-3.14-9.68-9.41v-14.6h-3.61v-6.29h3.61v-7.49h7.71v7.49h6.78v6.29h-6.78Z"/>
    <path d="M627.63,306.94h-22.15c.18,2.19.95,3.9,2.3,5.14,1.35,1.24,3.01,1.86,4.98,1.86,2.84,0,4.87-1.22,6.07-3.66h8.26c-.88,2.92-2.55,5.31-5.03,7.19-2.48,1.88-5.52,2.82-9.13,2.82-2.92,0-5.53-.65-7.85-1.94-2.32-1.29-4.12-3.13-5.41-5.5-1.29-2.37-1.94-5.1-1.94-8.2s.64-5.89,1.91-8.26c1.28-2.37,3.06-4.19,5.36-5.47s4.94-1.91,7.93-1.91,5.46.62,7.74,1.86c2.28,1.24,4.05,3,5.3,5.28s1.89,4.89,1.89,7.85c0,1.09-.07,2.08-.22,2.95ZM619.92,301.8c-.04-1.97-.75-3.55-2.13-4.73-1.39-1.18-3.08-1.78-5.09-1.78-1.9,0-3.49.57-4.79,1.72-1.29,1.15-2.09,2.74-2.38,4.78h14.38Z"/>
    <path d="M650.71,290.34c1.71.89,3.06,2.05,4.05,3.47v-4.32h7.71v30.52c0,2.81-.57,5.31-1.69,7.52-1.13,2.21-2.83,3.96-5.09,5.25s-5,1.94-8.2,1.94c-4.3,0-7.83-1-10.58-3.01-2.75-2-4.31-4.74-4.68-8.2h7.6c.4,1.39,1.27,2.49,2.6,3.31,1.33.82,2.94,1.23,4.84,1.23,2.22,0,4.03-.67,5.41-2,1.39-1.33,2.08-3.35,2.08-6.04v-4.7c-.98,1.42-2.34,2.61-4.07,3.55-1.73.95-3.71,1.42-5.93,1.42-2.55,0-4.89-.66-7-1.97-2.11-1.31-3.78-3.16-5-5.55-1.22-2.39-1.83-5.13-1.83-8.23s.61-5.78,1.83-8.15c1.22-2.37,2.88-4.19,4.98-5.47,2.1-1.28,4.44-1.91,7.03-1.91,2.26,0,4.25.45,5.96,1.34ZM653.66,299.86c-.73-1.33-1.71-2.35-2.95-3.06s-2.57-1.07-3.99-1.07-2.73.35-3.94,1.04c-1.2.69-2.18,1.7-2.93,3.04-.75,1.33-1.12,2.91-1.12,4.73s.37,3.42,1.12,4.79c.75,1.37,1.73,2.41,2.95,3.14,1.22.73,2.52,1.09,3.91,1.09s2.75-.36,3.99-1.07,2.22-1.73,2.95-3.06c.73-1.33,1.09-2.93,1.09-4.79s-.36-3.45-1.09-4.78Z"/>
    <path d="M698.4,289.49l-18.76,44.63h-8.15l6.56-15.09-12.14-29.53h8.59l7.82,21.16,7.93-21.16h8.15Z"/>
    <path d="M726.15,290.37c1.73-.91,3.71-1.37,5.93-1.37,2.59,0,4.93.64,7.03,1.91,2.1,1.28,3.75,3.09,4.98,5.44,1.22,2.35,1.83,5.08,1.83,8.18s-.61,5.84-1.83,8.23c-1.22,2.39-2.88,4.24-4.98,5.55-2.1,1.31-4.44,1.97-7.03,1.97-2.26,0-4.24-.45-5.93-1.34-1.69-.89-3.05-2.05-4.07-3.47v4.32h-7.66v-40.47h7.66v14.6c.98-1.46,2.34-2.64,4.07-3.55ZM736.98,299.8c-.75-1.33-1.73-2.34-2.95-3.04-1.22-.69-2.54-1.04-3.96-1.04s-2.69.36-3.91,1.07-2.21,1.74-2.95,3.09c-.75,1.35-1.12,2.94-1.12,4.76s.37,3.41,1.12,4.76c.75,1.35,1.73,2.38,2.95,3.09s2.52,1.07,3.91,1.07,2.74-.36,3.96-1.09c1.22-.73,2.21-1.77,2.95-3.12.75-1.35,1.12-2.95,1.12-4.81s-.37-3.4-1.12-4.73Z"/>
    <path d="M778.9,306.94h-22.15c.18,2.19.95,3.9,2.3,5.14,1.35,1.24,3.01,1.86,4.98,1.86,2.84,0,4.87-1.22,6.07-3.66h8.26c-.88,2.92-2.55,5.31-5.03,7.19-2.48,1.88-5.52,2.82-9.13,2.82-2.92,0-5.53-.65-7.85-1.94-2.32-1.29-4.12-3.13-5.41-5.5-1.29-2.37-1.94-5.1-1.94-8.2s.64-5.89,1.91-8.26c1.28-2.37,3.06-4.19,5.36-5.47,2.3-1.28,4.94-1.91,7.93-1.91s5.46.62,7.74,1.86c2.28,1.24,4.05,3,5.3,5.28,1.26,2.28,1.89,4.89,1.89,7.85,0,1.09-.07,2.08-.22,2.95ZM771.19,301.8c-.04-1.97-.75-3.55-2.13-4.73-1.39-1.18-3.08-1.78-5.09-1.78-1.9,0-3.49.57-4.78,1.72-1.29,1.15-2.09,2.74-2.38,4.78h14.38Z"/>
    <path d="M784.09,296.41c1.28-2.35,3.04-4.17,5.3-5.47,2.26-1.29,4.85-1.94,7.77-1.94,3.76,0,6.86.94,9.32,2.82,2.46,1.88,4.11,4.51,4.95,7.9h-8.26c-.44-1.31-1.18-2.34-2.21-3.09-1.04-.75-2.32-1.12-3.86-1.12-2.19,0-3.92.79-5.2,2.38-1.28,1.59-1.91,3.84-1.91,6.75s.64,5.11,1.91,6.7c1.28,1.59,3.01,2.38,5.2,2.38,3.1,0,5.12-1.39,6.07-4.16h8.26c-.84,3.28-2.5,5.89-4.98,7.82-2.48,1.93-5.58,2.9-9.3,2.9-2.92,0-5.51-.65-7.77-1.94-2.26-1.29-4.03-3.12-5.3-5.47-1.28-2.35-1.91-5.1-1.91-8.23s.64-5.88,1.91-8.23Z"/>
    <path d="M822.1,318.34c-2.33-1.29-4.17-3.13-5.5-5.5-1.33-2.37-2-5.1-2-8.2s.68-5.83,2.05-8.2c1.37-2.37,3.23-4.2,5.61-5.5,2.37-1.29,5.01-1.94,7.93-1.94s5.56.65,7.93,1.94c2.37,1.29,4.24,3.13,5.6,5.5,1.37,2.37,2.05,5.11,2.05,8.2s-.7,5.83-2.11,8.2c-1.4,2.37-3.3,4.2-5.69,5.5-2.39,1.29-5.06,1.94-8.01,1.94s-5.54-.65-7.87-1.94ZM833.88,312.6c1.22-.67,2.2-1.69,2.93-3.04.73-1.35,1.09-2.99,1.09-4.92,0-2.88-.76-5.09-2.27-6.64-1.51-1.55-3.36-2.32-5.55-2.32s-4.02.77-5.5,2.32c-1.48,1.55-2.22,3.76-2.22,6.64s.72,5.1,2.16,6.64c1.44,1.55,3.25,2.32,5.44,2.32,1.39,0,2.69-.34,3.91-1.01Z"/>
    <path d="M897.48,292.47c2.28,2.28,3.42,5.46,3.42,9.54v17.77h-7.66v-16.73c0-2.37-.6-4.18-1.8-5.44-1.2-1.26-2.84-1.89-4.92-1.89s-3.73.63-4.95,1.89c-1.22,1.26-1.83,3.07-1.83,5.44v16.73h-7.66v-16.73c0-2.37-.6-4.18-1.8-5.44-1.2-1.26-2.84-1.89-4.92-1.89s-3.78.63-5,1.89c-1.22,1.26-1.83,3.07-1.83,5.44v16.73h-7.66v-30.3h7.66v3.66c.98-1.28,2.25-2.28,3.8-3.01,1.55-.73,3.25-1.09,5.11-1.09,2.37,0,4.48.5,6.34,1.5,1.86,1,3.3,2.43,4.32,4.29.98-1.75,2.41-3.15,4.29-4.21,1.88-1.06,3.91-1.59,6.1-1.59,3.72,0,6.72,1.14,9,3.42Z"/>
    <path d="M935.57,306.94h-22.15c.18,2.19.95,3.9,2.3,5.14,1.35,1.24,3.01,1.86,4.98,1.86,2.84,0,4.87-1.22,6.07-3.66h8.26c-.88,2.92-2.55,5.31-5.03,7.19-2.48,1.88-5.52,2.82-9.13,2.82-2.92,0-5.53-.65-7.85-1.94-2.32-1.29-4.12-3.13-5.41-5.5-1.29-2.37-1.94-5.1-1.94-8.2s.64-5.89,1.91-8.26c1.28-2.37,3.06-4.19,5.36-5.47,2.3-1.28,4.94-1.91,7.93-1.91s5.46.62,7.74,1.86c2.28,1.24,4.05,3,5.3,5.28,1.26,2.28,1.89,4.89,1.89,7.85,0,1.09-.07,2.08-.22,2.95ZM927.86,301.8c-.04-1.97-.75-3.55-2.13-4.73-1.39-1.18-3.08-1.78-5.09-1.78-1.9,0-3.49.57-4.78,1.72-1.29,1.15-2.09,2.74-2.38,4.78h14.38Z"/>
    <path d="M945.75,318.94c-1.97-.89-3.53-2.11-4.68-3.64-1.15-1.53-1.78-3.23-1.89-5.09h7.71c.15,1.17.72,2.13,1.72,2.9,1,.77,2.25,1.15,3.75,1.15s2.6-.29,3.42-.87c.82-.58,1.23-1.33,1.23-2.24,0-.98-.5-1.72-1.5-2.21-1-.49-2.6-1.03-4.79-1.61-2.26-.55-4.11-1.11-5.55-1.7-1.44-.58-2.68-1.48-3.72-2.68-1.04-1.2-1.56-2.82-1.56-4.87,0-1.68.48-3.21,1.45-4.59.97-1.39,2.35-2.48,4.16-3.28,1.81-.8,3.93-1.2,6.37-1.2,3.61,0,6.49.9,8.64,2.71,2.15,1.8,3.34,4.24,3.55,7.3h-7.33c-.11-1.2-.61-2.16-1.5-2.87-.89-.71-2.09-1.07-3.58-1.07-1.39,0-2.45.25-3.2.77-.75.51-1.12,1.22-1.12,2.13,0,1.02.51,1.8,1.53,2.32,1.02.53,2.61,1.07,4.76,1.61,2.19.55,3.99,1.11,5.41,1.7,1.42.58,2.65,1.49,3.69,2.71,1.04,1.22,1.58,2.84,1.61,4.84,0,1.75-.48,3.32-1.45,4.7-.97,1.39-2.35,2.47-4.16,3.25s-3.91,1.18-6.32,1.18-4.7-.45-6.67-1.34Z"/>
    <path d="M987.47,318.94c-1.97-.89-3.53-2.11-4.68-3.64-1.15-1.53-1.78-3.23-1.89-5.09h7.71c.14,1.17.72,2.13,1.72,2.9,1,.77,2.25,1.15,3.75,1.15s2.6-.29,3.42-.87c.82-.58,1.23-1.33,1.23-2.24,0-.98-.5-1.72-1.5-2.21-1-.49-2.6-1.03-4.78-1.61-2.26-.55-4.11-1.11-5.55-1.7-1.44-.58-2.68-1.48-3.72-2.68-1.04-1.2-1.56-2.82-1.56-4.87,0-1.68.48-3.21,1.45-4.59.97-1.39,2.35-2.48,4.16-3.28,1.8-.8,3.93-1.2,6.37-1.2,3.61,0,6.49.9,8.64,2.71,2.15,1.8,3.34,4.24,3.55,7.3h-7.33c-.11-1.2-.61-2.16-1.5-2.87s-2.09-1.07-3.58-1.07c-1.39,0-2.45.25-3.2.77-.75.51-1.12,1.22-1.12,2.13,0,1.02.51,1.8,1.53,2.32,1.02.53,2.61,1.07,4.76,1.61,2.19.55,3.99,1.11,5.41,1.7s2.65,1.49,3.69,2.71c1.04,1.22,1.58,2.84,1.61,4.84,0,1.75-.48,3.32-1.45,4.7-.97,1.39-2.35,2.47-4.16,3.25s-3.91,1.18-6.32,1.18-4.7-.45-6.67-1.34Z"/>
    <path d="M1020.72,295.78v14.66c0,1.02.25,1.76.74,2.21.49.46,1.32.68,2.49.68h3.55v6.45h-4.81c-6.45,0-9.68-3.14-9.68-9.41v-14.6h-3.61v-6.29h3.61v-7.49h7.71v7.49h6.78v6.29h-6.78Z"/>
    <path d="M1043.99,290.42c1.59-.91,3.4-1.37,5.44-1.37v8.04h-2.02c-2.41,0-4.22.57-5.44,1.7-1.22,1.13-1.83,3.1-1.83,5.91v15.09h-7.66v-30.3h7.66v4.7c.98-1.6,2.27-2.86,3.86-3.77Z"/>
    <path d="M1082.63,289.49v30.3h-7.71v-3.83c-.98,1.31-2.27,2.34-3.86,3.09-1.59.75-3.31,1.12-5.17,1.12-2.37,0-4.47-.5-6.29-1.5-1.82-1-3.25-2.48-4.29-4.43-1.04-1.95-1.56-4.27-1.56-6.97v-17.77h7.66v16.68c0,2.41.6,4.26,1.8,5.55,1.2,1.29,2.84,1.94,4.92,1.94s3.77-.65,4.98-1.94c1.2-1.29,1.8-3.14,1.8-5.55v-16.68h7.71Z"/>
    <path d="M1089.57,296.41c1.28-2.35,3.04-4.17,5.3-5.47,2.26-1.29,4.85-1.94,7.76-1.94,3.76,0,6.86.94,9.33,2.82,2.46,1.88,4.11,4.51,4.95,7.9h-8.26c-.44-1.31-1.18-2.34-2.21-3.09-1.04-.75-2.32-1.12-3.86-1.12-2.19,0-3.92.79-5.19,2.38-1.28,1.59-1.91,3.84-1.91,6.75s.64,5.11,1.91,6.7c1.28,1.59,3.01,2.38,5.19,2.38,3.1,0,5.12-1.39,6.07-4.16h8.26c-.84,3.28-2.5,5.89-4.98,7.82-2.48,1.93-5.58,2.9-9.3,2.9-2.92,0-5.51-.65-7.76-1.94-2.26-1.29-4.03-3.12-5.3-5.47-1.28-2.35-1.91-5.1-1.91-8.23s.64-5.88,1.91-8.23Z"/>
    <path d="M1130.92,295.78v14.66c0,1.02.25,1.76.74,2.21.49.46,1.32.68,2.49.68h3.55v6.45h-4.81c-6.45,0-9.68-3.14-9.68-9.41v-14.6h-3.61v-6.29h3.61v-7.49h7.71v7.49h6.78v6.29h-6.78Z"/>
    <path d="M1171.28,289.49v30.3h-7.71v-3.83c-.98,1.31-2.27,2.34-3.86,3.09-1.59.75-3.31,1.12-5.17,1.12-2.37,0-4.47-.5-6.29-1.5-1.82-1-3.25-2.48-4.29-4.43-1.04-1.95-1.56-4.27-1.56-6.97v-17.77h7.66v16.68c0,2.41.6,4.26,1.8,5.55,1.2,1.29,2.84,1.94,4.92,1.94s3.77-.65,4.98-1.94c1.2-1.29,1.81-3.14,1.81-5.55v-16.68h7.71Z"/>
    <path d="M1189.79,290.42c1.59-.91,3.4-1.37,5.44-1.37v8.04h-2.02c-2.41,0-4.22.57-5.44,1.7-1.22,1.13-1.83,3.1-1.83,5.91v15.09h-7.66v-30.3h7.66v4.7c.98-1.6,2.27-2.86,3.86-3.77Z"/>
    <path d="M1227.77,306.94h-22.15c.18,2.19.95,3.9,2.3,5.14,1.35,1.24,3.01,1.86,4.98,1.86,2.84,0,4.87-1.22,6.07-3.66h8.26c-.87,2.92-2.55,5.31-5.03,7.19-2.48,1.88-5.52,2.82-9.13,2.82-2.92,0-5.53-.65-7.85-1.94-2.32-1.29-4.12-3.13-5.41-5.5-1.29-2.37-1.94-5.1-1.94-8.2s.64-5.89,1.91-8.26c1.28-2.37,3.06-4.19,5.36-5.47,2.3-1.28,4.94-1.91,7.93-1.91s5.46.62,7.74,1.86,4.05,3,5.3,5.28c1.26,2.28,1.89,4.89,1.89,7.85,0,1.09-.07,2.08-.22,2.95ZM1220.06,301.8c-.04-1.97-.75-3.55-2.13-4.73-1.39-1.18-3.08-1.78-5.09-1.78-1.9,0-3.49.57-4.79,1.72s-2.09,2.74-2.38,4.78h14.38Z"/>
    <path d="M1232.99,318.89c-.89-.86-1.34-1.92-1.34-3.2s.45-2.34,1.34-3.2c.89-.86,2.03-1.28,3.42-1.28s2.46.43,3.34,1.28c.87.86,1.31,1.92,1.31,3.2s-.44,2.34-1.31,3.2c-.88.86-1.99,1.29-3.34,1.29s-2.52-.43-3.42-1.29Z"/>
  </g>
</svg>